<svg width="117" height="136" viewBox="0 0 117 136" fill="none" xmlns="http://www.w3.org/2000/svg">
<g clip-path="url(#clip0_315_1087)">
<path d="M27.0088 43.426V100.462C27.0088 100.887 27.3539 101.233 27.7795 101.233H46.4061C46.8318 101.233 47.1769 100.887 47.1769 100.462V82.4775C47.1769 82.0519 47.5219 81.7068 47.9476 81.7068H68.2441C68.6698 81.7068 69.0149 82.0519 69.0149 82.4775V100.462C69.0149 100.887 69.36 101.233 69.7856 101.233H88.7976C89.2233 101.233 89.5683 100.887 89.5683 100.462V21.3311" stroke="white" stroke-width="5.13836"/>
<path d="M46.5342 27.2402V59.6119C46.5342 60.0376 46.8793 60.3827 47.3049 60.3827H67.0876C67.5133 60.3827 67.8584 60.0376 67.8584 59.6119V49.7206" stroke="white" stroke-width="5.13836"/>
<circle cx="26.7505" cy="40.8569" r="3.33994" stroke="white" stroke-width="2.56918"/>
<circle cx="46.5337" cy="24.9282" r="3.33994" stroke="white" stroke-width="2.56918"/>
<circle cx="67.8579" cy="47.023" r="3.33994" stroke="white" stroke-width="2.56918"/>
<circle cx="89.6958" cy="18.5054" r="3.33994" stroke="white" stroke-width="2.56918"/>
<path d="M0.769626 120.808V110.827H2.61927V114.945H7.54003V110.827H9.38968V120.808H7.54003V116.55H2.61927V120.808H0.769626ZM14.9065 110.827H16.8958L19.7016 115.636L22.34 110.827H24.2594L20.5881 117.318V120.808H18.7384V117.318L14.9065 110.827ZM29.1411 120.808V110.827H33.6082C35.6463 110.827 36.6653 111.764 36.6653 113.639C36.6653 115.673 35.2717 116.904 32.4844 117.332L32.2192 115.684C33.8944 115.382 34.7319 114.719 34.7319 113.695C34.7319 112.867 34.3178 112.453 33.4895 112.453H30.9908V120.808H29.1411ZM49.0154 110.827V112.418H44.0179V114.931H48.7781V116.585H43.9969V119.202H49.1131V120.808H42.1822V110.827H49.0154ZM55.1116 120.794V110.827H59.6484C61.6865 110.827 62.7056 111.718 62.7056 113.5C62.7056 114.705 61.9122 115.703 60.3255 116.494L63.4873 120.808H61.1561L58.1199 116.459V115.615C59.8881 115.312 60.7722 114.626 60.7722 113.556C60.7722 112.82 60.358 112.453 59.5298 112.453H56.9961V120.794H55.1116ZM70.5048 110.827V119.202H74.4693V120.808H68.6552V110.827H70.5048ZM87.3429 110.827V112.418H82.3453V114.931H87.1056V116.585H82.3244V119.202H87.4406V120.808H80.5097V110.827H87.3429ZM100.272 110.827V112.418H95.2747V114.931H100.035V116.585H95.2538V119.202H100.37V120.808H93.439V110.827H100.272ZM106.368 120.808V110.827H108.218L113.488 118.099V110.827H115.268V120.808H113.418L108.148 113.381V120.808H106.368Z" fill="white"/>
<path d="M0.197283 133.238V129.246H1.90035C2.65976 129.246 3.03946 129.556 3.03946 130.176C3.03946 130.63 2.79191 130.954 2.29681 131.15C2.82541 131.249 3.08971 131.551 3.08971 132.057C3.08971 132.845 2.67372 133.238 1.84172 133.238H0.197283ZM1.81101 132.819C2.2875 132.819 2.52574 132.578 2.52574 132.094C2.52574 131.623 2.20653 131.387 1.56812 131.387H1.34476V131.049C2.10789 130.947 2.48945 130.672 2.48945 130.223C2.48945 129.851 2.27726 129.665 1.85289 129.665H0.713788V132.819H1.81101ZM4.6552 133.238V130.307H5.00419L5.09632 130.681C5.35318 130.431 5.66215 130.307 6.02324 130.307V130.737C5.67332 130.737 5.38947 130.86 5.1717 131.108V133.238H4.6552ZM7.20344 132.353C7.20344 131.752 7.59989 131.451 8.3928 131.451C8.64779 131.451 8.90279 131.47 9.15778 131.507V131.231C9.15778 130.894 8.89441 130.726 8.36767 130.726C8.06614 130.726 7.75717 130.772 7.44075 130.865V130.446C7.75717 130.353 8.06614 130.307 8.36767 130.307C9.23875 130.307 9.67429 130.61 9.67429 131.217V133.238H9.38393L9.20524 132.948C8.91302 133.141 8.59475 133.238 8.25041 133.238C7.55243 133.238 7.20344 132.943 7.20344 132.353ZM8.3928 131.87C7.94423 131.87 7.71994 132.028 7.71994 132.345C7.71994 132.661 7.89677 132.819 8.25041 132.819C8.60777 132.819 8.91023 132.725 9.15778 132.535V131.926C8.90279 131.889 8.64779 131.87 8.3928 131.87ZM11.3152 133.238V130.307H11.6641L11.7563 130.681C12.0559 130.431 12.3854 130.307 12.7446 130.307C13.4761 130.307 13.8418 130.671 13.8418 131.398V133.238H13.3253V131.39C13.3253 130.954 13.1085 130.737 12.6748 130.737C12.3789 130.737 12.0978 130.86 11.8317 131.108V133.238H11.3152ZM17.451 130.904C17.2425 130.804 17.0043 130.753 16.7363 130.753C16.1463 130.753 15.8512 131.067 15.8512 131.694C15.8512 132.437 16.1463 132.808 16.7363 132.808C17.0043 132.808 17.2425 132.772 17.451 132.699V130.904ZM17.9675 133.062C17.612 133.18 17.1737 133.238 16.6525 133.238C15.7796 133.238 15.3431 132.73 15.3431 131.714C15.3431 130.776 15.8066 130.307 16.7335 130.307C16.9866 130.307 17.2258 130.353 17.451 130.446V129.246H17.9675V133.062ZM24.8732 133.099C24.5288 133.21 24.1566 133.266 23.7564 133.266C22.3604 133.266 21.6625 132.573 21.6625 131.186C21.6625 129.874 22.3604 129.218 23.7564 129.218C24.1566 129.218 24.5288 129.274 24.8732 129.385V129.832C24.5288 129.702 24.1752 129.637 23.8122 129.637C22.7234 129.637 22.179 130.153 22.179 131.186C22.179 132.294 22.7234 132.847 23.8122 132.847C24.1752 132.847 24.5288 132.782 24.8732 132.652V133.099ZM27.0166 129.246V133.238H26.5001V129.246H27.0166ZM28.5458 132.353C28.5458 131.752 28.9422 131.451 29.7351 131.451C29.9901 131.451 30.2451 131.47 30.5001 131.507V131.231C30.5001 130.894 30.2367 130.726 29.71 130.726C29.4085 130.726 29.0995 130.772 28.7831 130.865V130.446C29.0995 130.353 29.4085 130.307 29.71 130.307C30.5811 130.307 31.0166 130.61 31.0166 131.217V133.238H30.7263L30.5476 132.948C30.2554 133.141 29.9371 133.238 29.5927 133.238C28.8948 133.238 28.5458 132.943 28.5458 132.353ZM29.7351 131.87C29.2866 131.87 29.0623 132.028 29.0623 132.345C29.0623 132.661 29.2391 132.819 29.5927 132.819C29.9501 132.819 30.2526 132.725 30.5001 132.535V131.926C30.2451 131.889 29.9901 131.87 29.7351 131.87ZM32.6575 133.238V130.307H33.0065L33.0986 130.681C33.3555 130.431 33.6644 130.307 34.0255 130.307V130.737C33.6756 130.737 33.3918 130.86 33.174 131.108V133.238H32.6575ZM35.9177 130.307V133.238H35.4012V130.307H35.9177ZM35.9177 129.246V129.734H35.4012V129.246H35.9177ZM37.6144 129.832H37.9382L38.0499 130.307H38.8428V130.726H38.1309V132.409C38.1309 132.683 38.2491 132.819 38.4855 132.819H38.8428V133.238H38.3514C37.8601 133.238 37.6144 132.975 37.6144 132.448V129.832ZM39.9532 130.307H40.5144L41.3436 132.596L42.2007 130.307H42.7479L41.5307 133.325C41.3147 133.857 40.9909 134.189 40.5591 134.322L40.3608 133.956C40.6884 133.812 40.9267 133.579 41.0756 133.255L39.9532 130.307ZM48.9807 129.246V129.665H47.7244V133.238H47.2079V129.665H45.9515V129.246H48.9807ZM50.3424 133.238V129.246H50.8589V130.625C51.1083 130.413 51.4126 130.307 51.7719 130.307C52.5033 130.307 52.8691 130.671 52.8691 131.398V133.238H52.3526V131.39C52.3526 130.954 52.1357 130.737 51.7021 130.737C51.4061 130.737 51.1251 130.86 50.8589 131.108V133.238H50.3424ZM54.51 133.238V130.307H54.8589L54.9511 130.681C55.2079 130.431 55.5169 130.307 55.878 130.307V130.737C55.5281 130.737 55.2442 130.86 55.0265 131.108V133.238H54.51ZM57.5747 131.761C57.5747 132.467 57.8679 132.819 58.4542 132.819C59.0405 132.819 59.3336 132.467 59.3336 131.761C59.3336 131.071 59.0405 130.726 58.4542 130.726C57.8679 130.726 57.5747 131.071 57.5747 131.761ZM57.0582 131.773C57.0582 130.795 57.5235 130.307 58.4542 130.307C59.3848 130.307 59.8501 130.795 59.8501 131.773C59.8501 132.748 59.3848 133.235 58.4542 133.235C57.5272 133.235 57.0619 132.748 57.0582 131.773ZM63.8753 130.307V133.238H63.5207L63.4314 132.864C63.0759 133.114 62.7185 133.238 62.3593 133.238C61.6855 133.238 61.3486 132.874 61.3486 132.147V130.307H61.8651V132.155C61.8651 132.591 62.081 132.808 62.5128 132.808C62.8088 132.808 63.0908 132.685 63.3588 132.437V130.307H63.8753ZM67.4761 130.804C67.2993 130.759 67.0806 130.737 66.82 130.737C66.1964 130.737 65.8847 131.075 65.8847 131.75C65.8847 132.444 66.1797 132.792 66.7697 132.792C67.0377 132.792 67.2732 132.741 67.4761 132.641V130.804ZM67.9926 133.238C67.9926 133.946 67.5431 134.299 66.6441 134.299C66.283 134.299 65.9629 134.253 65.6837 134.16V133.741C65.9684 133.834 66.2904 133.88 66.6497 133.88C67.2006 133.88 67.4761 133.666 67.4761 133.238V133.099C67.2564 133.192 67.0201 133.238 66.7669 133.238C65.84 133.238 65.3766 132.744 65.3766 131.756C65.3766 130.79 65.8651 130.307 66.8423 130.307C67.2388 130.307 67.6222 130.347 67.9926 130.427V133.238ZM69.6334 133.238V129.246H70.15V130.625C70.3994 130.413 70.7037 130.307 71.0629 130.307C71.7944 130.307 72.1601 130.671 72.1601 131.398V133.238H71.6436V131.39C71.6436 130.954 71.4268 130.737 70.9931 130.737C70.6972 130.737 70.4161 130.86 70.15 131.108V133.238H69.6334ZM76.1845 133.238H75.6485L77.3432 129.246H77.9155L79.6186 133.238H79.0462L78.5297 131.982H77.2092L77.3515 131.563H78.3566L77.6112 129.754L76.1845 133.238ZM81.5638 129.246V133.238H81.0473V129.246H81.5638ZM85.5965 133.238V129.246H87.2996C88.059 129.246 88.4387 129.556 88.4387 130.176C88.4387 130.63 88.1912 130.954 87.6961 131.15C88.2247 131.249 88.489 131.551 88.489 132.057C88.489 132.845 88.073 133.238 87.241 133.238H85.5965ZM87.2103 132.819C87.6867 132.819 87.925 132.578 87.925 132.094C87.925 131.623 87.6058 131.387 86.9674 131.387H86.744V131.049C87.5071 130.947 87.8887 130.672 87.8887 130.223C87.8887 129.851 87.6765 129.665 87.2521 129.665H86.113V132.819H87.2103ZM90.0544 133.238V130.307H90.4034L90.4956 130.681C90.7524 130.431 91.0614 130.307 91.4225 130.307V130.737C91.0726 130.737 90.7887 130.86 90.571 131.108V133.238H90.0544ZM93.3146 130.307V133.238H92.7981V130.307H93.3146ZM93.3146 129.246V129.734H92.7981V129.246H93.3146ZM95.5558 129.246V133.238H95.0393V129.246H95.5558ZM97.769 129.246V133.238H97.2525V129.246H97.769ZM100.01 130.307V133.238H99.4936V130.307H100.01ZM100.01 129.246V129.734H99.4936V129.246H100.01ZM101.567 132.353C101.567 131.752 101.964 131.451 102.757 131.451C103.012 131.451 103.267 131.47 103.522 131.507V131.231C103.522 130.894 103.258 130.726 102.731 130.726C102.43 130.726 102.121 130.772 101.805 130.865V130.446C102.121 130.353 102.43 130.307 102.731 130.307C103.603 130.307 104.038 130.61 104.038 131.217V133.238H103.748L103.569 132.948C103.277 133.141 102.959 133.238 102.614 133.238C101.916 133.238 101.567 132.943 101.567 132.353ZM102.757 131.87C102.308 131.87 102.084 132.028 102.084 132.345C102.084 132.661 102.261 132.819 102.614 132.819C102.972 132.819 103.274 132.725 103.522 132.535V131.926C103.267 131.889 103.012 131.87 102.757 131.87ZM105.679 133.238V130.307H106.028L106.12 130.681C106.42 130.431 106.749 130.307 107.108 130.307C107.84 130.307 108.206 130.671 108.206 131.398V133.238H107.689V131.39C107.689 130.954 107.472 130.737 107.039 130.737C106.743 130.737 106.462 130.86 106.195 131.108V133.238H105.679ZM112.052 133.155C111.81 133.21 111.55 133.238 111.27 133.238C110.228 133.238 109.707 132.731 109.707 131.717C109.707 130.777 110.228 130.307 111.27 130.307C111.55 130.307 111.81 130.335 112.052 130.391V130.809C111.81 130.753 111.54 130.726 111.242 130.726C110.563 130.726 110.223 131.056 110.223 131.717C110.223 132.452 110.563 132.819 111.242 132.819C111.54 132.819 111.81 132.792 112.052 132.736V133.155ZM114.72 130.307C115.554 130.307 115.971 130.719 115.971 131.544C115.971 131.661 115.963 131.786 115.946 131.92H113.888C113.888 132.52 114.238 132.819 114.938 132.819C115.271 132.819 115.567 132.782 115.826 132.708V133.127C115.567 133.201 115.253 133.238 114.882 133.238C113.875 133.238 113.372 132.739 113.372 131.739C113.372 130.784 113.821 130.307 114.72 130.307ZM113.888 131.491H115.474C115.463 130.977 115.212 130.72 114.72 130.72C114.199 130.72 113.922 130.977 113.888 131.491Z" fill="white"/>
</g>
<defs>
<clipPath id="clip0_315_1087">
<rect width="117" height="135" fill="white" transform="translate(0 0.823242)"/>
</clipPath>
</defs>
</svg>
